<svg width="38" height="39" viewBox="0 0 38 39" fill="none" xmlns="http://www.w3.org/2000/svg">
<path d="M35.28 11.45L29.82 8.64996V4.44996C29.82 3.42329 29.4467 2.55996 28.7 1.85996C27.9533 1.15996 27.0667 0.809959 26.04 0.809959H11.2C10.1733 0.809959 9.28667 1.15996 8.54 1.85996C7.79333 2.55996 7.42 3.42329 7.42 4.44996V8.64996L1.96 11.45C1.4 11.73 0.933333 12.1733 0.56 12.78C0.186667 13.3866 0 14.0633 0 14.81V36.79C0 37.1633 0.116667 37.4666 0.35 37.7C0.583333 37.9333 0.886667 38.05 1.26 38.05H35.98C36.3533 38.05 36.6567 37.9333 36.89 37.7C37.1233 37.4666 37.24 37.1633 37.24 36.79V14.81C37.24 14.0633 37.0533 13.3866 36.68 12.78C36.3067 12.1733 35.84 11.73 35.28 11.45ZM7.42 35.67H2.38V14.81C2.38 14.25 2.61333 13.83 3.08 13.55L7.42 11.45V35.67ZM22.4 35.67H14.84V30.63H22.4V35.67ZM27.3 35.67H24.78V29.37C24.78 28.9966 24.6633 28.6933 24.43 28.46C24.1967 28.2266 23.94 28.11 23.66 28.11H13.58C13.3 28.11 13.02 28.2266 12.74 28.46C12.46 28.6933 12.32 28.9966 12.32 29.37V35.53H9.94V4.44996C9.94 4.16996 10.0567 3.88996 10.29 3.60996C10.5233 3.32996 10.8267 3.18996 11.2 3.18996H26.04C26.4133 3.18996 26.7167 3.32996 26.95 3.60996C27.1833 3.88996 27.3 4.16996 27.3 4.44996V35.67ZM34.86 35.67H29.82V11.45L34.16 13.55C34.6267 13.83 34.86 14.25 34.86 14.81V35.67ZM19.88 20.69H24.92V23.21H19.88V20.69ZM12.46 20.69H17.36V23.21H12.46V20.69ZM19.88 15.65H24.92V18.17H19.88V15.65ZM12.46 15.65H17.36V18.17H12.46V15.65ZM19.88 10.75H24.92V13.13H19.88V10.75ZM12.46 10.75H17.36V13.13H12.46V10.75ZM19.88 5.70996H24.92V8.22996H19.88V5.70996ZM12.46 5.70996H17.36V8.22996H12.46V5.70996Z" fill="#005AAA"/>
</svg>
