<svg width="15" height="15" viewBox="0 0 15 15" fill="none" xmlns="http://www.w3.org/2000/svg">
<g clip-path="url(#clip0_8117_129)">
<path d="M14.02 0.736671V9.79C14.02 9.94556 13.9656 10.0856 13.8567 10.21C13.7478 10.3344 13.6078 10.3967 13.4367 10.3967C13.2656 10.3967 13.1178 10.3344 12.9934 10.21C12.8689 10.0856 12.8067 9.94556 12.8067 9.79V2.18334L1.04669 13.9433C0.922242 14.0678 0.774464 14.13 0.603353 14.13C0.432242 14.13 0.292242 14.0756 0.183353 13.9667C0.074464 13.8578 0.0200195 13.7178 0.0200195 13.5467C0.0200195 13.3756 0.0822418 13.2278 0.206686 13.1033L11.9667 1.34334H4.36002C4.20446 1.34334 4.06446 1.28112 3.94002 1.15667C3.81558 1.03223 3.75335 0.884449 3.75335 0.713338C3.75335 0.542227 3.81558 0.402227 3.94002 0.293338C4.06446 0.184449 4.20446 0.130005 4.36002 0.130005H13.4134C13.6 0.130005 13.7478 0.184449 13.8567 0.293338C13.9656 0.402227 14.02 0.550005 14.02 0.736671Z" fill="#005AAA"/>
</g>
<defs>
<clipPath id="clip0_8117_129">
<rect width="14" height="14" fill="white" transform="matrix(1 0 0 -1 0.0200195 14.13)"/>
</clipPath>
</defs>
</svg>
