<svg width="23" height="24" viewBox="0 0 23 24" fill="none" xmlns="http://www.w3.org/2000/svg">
<path d="M15.64 1.63877H9.50667C8.63778 1.63877 7.84556 1.84322 7.13 2.25211C6.41444 2.661 5.83944 3.23599 5.405 3.97711C4.97056 4.71822 4.75333 5.52322 4.75333 6.39211H3.37333C2.45333 6.39211 1.66111 6.72433 0.996667 7.38877C0.332222 8.05322 0 8.84544 0 9.76544V11.8354C0 12.0399 0.0638889 12.206 0.191667 12.3338C0.319444 12.4615 0.485556 12.5254 0.69 12.5254H10.1967C10.4011 12.5254 10.5672 12.4615 10.695 12.3338C10.8228 12.206 10.8867 12.0399 10.8867 11.8354V9.76544C10.8867 8.84544 10.5544 8.05322 9.89 7.38877C9.22556 6.72433 8.43333 6.39211 7.51333 6.39211H6.13333C6.13333 5.47211 6.46556 4.67988 7.13 4.01544C7.79444 3.351 8.58667 2.99322 9.50667 2.94211H15.64C16.56 2.99322 17.3522 3.351 18.0167 4.01544C18.6811 4.67988 19.0389 5.47211 19.09 6.39211V22.3386H20.3933V6.39211C20.3933 5.52322 20.1889 4.71822 19.78 3.97711C19.3711 3.23599 18.7961 2.661 18.055 2.25211C17.3139 1.84322 16.5089 1.63877 15.64 1.63877ZM7.43667 7.77211C7.99889 7.77211 8.48444 7.96377 8.89333 8.34711C9.30222 8.73044 9.50667 9.20322 9.50667 9.76544V11.1454H1.30333V9.76544C1.30333 9.20322 1.50778 8.73044 1.91667 8.34711C2.32556 7.96377 2.81111 7.77211 3.37333 7.77211H7.43667ZM0.69 14.5954H1.99333V19.3488H0.69V14.5954ZM3.37333 14.5954H4.75333V16.5888H3.37333V14.5954ZM3.37333 18.6588H4.75333V21.3421H3.37333V18.6588ZM6.13333 14.5954H7.43667V17.9688H6.13333V14.5954ZM6.13333 19.3488H7.43667V20.6521H6.13333V19.3488ZM8.81667 14.5954H10.1967V16.5888H8.81667V14.5954ZM8.81667 17.9688H10.1967V22.3386H8.81667V17.9688Z" fill="#181A20"/>
</svg>
