<svg width="35" height="38" viewBox="0 0 35 38" fill="none" xmlns="http://www.w3.org/2000/svg">
<path d="M28.75 37.41H6.25C4.58333 37.41 3.14583 36.8139 1.9375 35.6217C0.729167 34.4294 0.125 32.97 0.125 31.2433L0 14.84C0 13.2778 0.354167 11.8594 1.0625 10.585C1.77083 9.31056 2.79167 8.26223 4.125 7.44L14.125 1.27334C15.125 0.697781 16.2292 0.410004 17.4375 0.410004C18.6458 0.410004 19.75 0.697781 20.75 1.27334L30.75 7.44C32.0833 8.18 33.1042 9.20778 33.8125 10.5233C34.5208 11.8389 34.875 13.2778 34.875 14.84L35 31.2433C35 32.97 34.3958 34.4294 33.1875 35.6217C31.9792 36.8139 30.5 37.41 28.75 37.41ZM17.5 2.87667C16.75 2.87667 16.0833 3.04111 15.5 3.37L5.375 9.53667C4.45833 10.1122 3.75 10.8728 3.25 11.8183C2.75 12.7639 2.5 13.7711 2.5 14.84V31.2433C2.5 32.23 2.875 33.0933 3.625 33.8333C4.375 34.5733 5.25 34.9433 6.25 34.9433H28.75C29.8333 34.9433 30.7292 34.5733 31.4375 33.8333C32.1458 33.0933 32.5 32.23 32.5 31.2433V14.84C32.5 13.6889 32.2292 12.6611 31.6875 11.7567C31.1458 10.8522 30.4167 10.1122 29.5 9.53667L19.375 3.37C18.7917 3.04111 18.1667 2.87667 17.5 2.87667ZM22.5 30.01H12.5C12.1667 30.01 11.8958 29.8867 11.6875 29.64C11.4792 29.3933 11.375 29.1056 11.375 28.7767C11.375 28.4478 11.4792 28.16 11.6875 27.9133C11.8958 27.6667 12.1667 27.5433 12.5 27.5433H22.5C23 27.4611 23.3958 27.6461 23.6875 28.0983C23.9792 28.5506 23.9792 29.0028 23.6875 29.455C23.3958 29.9072 23 30.0922 22.5 30.01Z" fill="#005AAA"/>
</svg>
