<svg width="9" height="16" viewBox="0 0 9 16" fill="none" xmlns="http://www.w3.org/2000/svg">
<path d="M7.43896 15.1727L0.864745 8.74793C0.69873 8.59298 0.615722 8.40483 0.615722 8.18347C0.615722 8.07833 0.637858 7.97872 0.682128 7.88464C0.726399 7.78503 0.787271 7.69926 0.864745 7.62732L7.43896 1.20251C7.58284 1.0531 7.76269 0.978394 7.97851 0.978394C8.12239 0.978394 8.25244 1.0116 8.36865 1.078C8.47933 1.14441 8.56787 1.23572 8.63428 1.35193C8.70068 1.46261 8.73389 1.58988 8.73389 1.73376C8.73389 1.95512 8.66195 2.13497 8.51807 2.27332L2.02685 8.63171L2.02685 7.74353L8.51807 14.1019C8.66195 14.2347 8.73389 14.4146 8.73389 14.6415C8.73389 14.7854 8.70068 14.9154 8.63428 15.0316C8.56787 15.1423 8.47933 15.2308 8.36865 15.2972C8.25244 15.3636 8.1224 15.3969 7.97852 15.3969C7.87337 15.3969 7.77376 15.3775 7.67969 15.3387C7.58561 15.3 7.50537 15.2447 7.43896 15.1727Z" fill="#005AAA"/>
</svg>
