<svg width="38" height="38" viewBox="0 0 38 38" fill="none" xmlns="http://www.w3.org/2000/svg">
<path d="M33.6 30.23V13.99C33.6 11.5633 32.97 9.3 31.71 7.2C30.45 5.1 28.77 3.44333 26.67 2.23C24.57 1.01666 22.3067 0.409996 19.88 0.409996H17.36C14.9333 0.409996 12.67 1.01666 10.57 2.23C8.47 3.44333 6.79 5.1 5.53 7.2C4.27 9.3 3.64 11.5633 3.64 13.99V30.23H0V32.75H8.68V37.65H11.2V32.75H26.04V37.65H28.56V32.75H37.24V30.23H33.6ZM31.08 13.99V16.51H19.88V2.79C21.9333 2.79 23.8 3.30333 25.48 4.33C27.16 5.35666 28.5133 6.73333 29.54 8.46C30.5667 10.1867 31.08 12.03 31.08 13.99ZM6.16 13.99C6.16 12.03 6.67333 10.1867 7.7 8.46C8.72667 6.73333 10.08 5.35666 11.76 4.33C13.44 3.30333 15.3067 2.79 17.36 2.79V16.51H6.16V13.99ZM6.16 19.03H17.36V30.23H6.16V19.03ZM19.88 30.23V19.03H31.08V30.23H19.88Z" fill="#005AAA"/>
</svg>
