<svg width="35" height="38" viewBox="0 0 35 38" fill="none" xmlns="http://www.w3.org/2000/svg">
<path d="M32.06 9.23L20.86 1.39C19.8333 0.736664 18.6667 0.409996 17.36 0.409996C16.0533 0.409996 14.8867 0.736664 13.86 1.39L2.66 9.23C1.82 9.79 1.16667 10.5133 0.7 11.4C0.233333 12.2867 0 13.2433 0 14.27V31.49C0 33.17 0.606667 34.6167 1.82 35.83C3.03333 37.0433 4.48 37.65 6.16 37.65H28.56C30.24 37.65 31.6867 37.0433 32.9 35.83C34.1133 34.6167 34.72 33.17 34.72 31.49V14.27C34.72 13.2433 34.4867 12.2867 34.02 11.4C33.5533 10.5133 32.9 9.79 32.06 9.23ZM4.06 11.19L15.26 3.49C15.82 3.02333 16.4967 2.79 17.29 2.79C18.0833 2.79 18.8067 3.02333 19.46 3.49L30.52 11.19C31.08 11.5633 31.5 12.03 31.78 12.59C32.06 13.15 32.2 13.71 32.2 14.27V28.97H2.52V14.27C2.52 13.6167 2.66 13.0333 2.94 12.52C3.22 12.0067 3.59333 11.5633 4.06 11.19ZM31.08 34.15C30.4267 34.8967 29.5867 35.27 28.56 35.27H6.16C5.13333 35.27 4.27 34.8967 3.57 34.15C2.87 33.4033 2.52 32.5167 2.52 31.49H32.2C32.2 32.5167 31.8267 33.4033 31.08 34.15ZM16.24 24.07C16.24 24.4433 16.3567 24.7467 16.59 24.98C16.8233 25.2133 17.1033 25.33 17.43 25.33C17.7567 25.33 18.0367 25.2133 18.27 24.98C18.5033 24.7467 18.62 24.4433 18.62 24.07C18.62 23.6967 18.5033 23.3933 18.27 23.16C18.0367 22.9267 17.7567 22.81 17.43 22.81C17.1033 22.81 16.8233 22.9267 16.59 23.16C16.3567 23.3933 16.24 23.6967 16.24 24.07ZM17.5 17.91C16.38 17.91 15.33 18.19 14.35 18.75C13.37 19.31 12.6 20.0567 12.04 20.99L14.28 22.25C14.56 21.5967 14.98 21.1067 15.54 20.78C16.1 20.4533 16.73 20.29 17.43 20.29C18.13 20.29 18.76 20.4533 19.32 20.78C19.88 21.1067 20.3467 21.5967 20.72 22.25L22.82 20.99C22.26 20.0567 21.49 19.31 20.51 18.75C19.53 18.19 18.5267 17.91 17.5 17.91ZM17.5 15.39C18.9933 15.39 20.4167 15.7867 21.77 16.58C23.1233 17.3733 24.1733 18.4233 24.92 19.73L27.16 18.47C26.1333 16.79 24.7567 15.4367 23.03 14.41C21.3033 13.3833 19.4367 12.87 17.43 12.87C15.4233 12.87 13.5567 13.3833 11.83 14.41C10.1033 15.4367 8.77333 16.79 7.84 18.47L9.94 19.73C10.6867 18.4233 11.7367 17.3733 13.09 16.58C14.4433 15.7867 15.9133 15.39 17.5 15.39Z" fill="#005AAA"/>
</svg>
