<svg width="16" height="17" viewBox="0 0 16 17" fill="none" xmlns="http://www.w3.org/2000/svg">
<g clip-path="url(#clip0_8114_51)">
<path d="M7.05333 3.33997H15.5333C15.7467 3.37552 15.9156 3.29552 16.04 3.09997C16.1644 2.90441 16.1644 2.70886 16.04 2.5133C15.9156 2.31775 15.7467 2.23775 15.5333 2.2733H7.05333C6.91111 2.2733 6.79556 2.32664 6.70667 2.4333C6.61778 2.53997 6.57333 2.66441 6.57333 2.80664C6.57333 2.94886 6.61778 3.0733 6.70667 3.17997C6.79556 3.28664 6.91111 3.33997 7.05333 3.33997ZM0.6 3.33997H1.66667C1.73778 3.5533 1.86222 3.74886 2.04 3.92664L2.46667 4.29997C2.75111 4.61997 3.11556 4.77997 3.56 4.77997C4.00444 4.77997 4.38667 4.61997 4.70667 4.29997L5.08 3.92664C5.4 3.60664 5.56 3.2333 5.56 2.80664C5.56 2.37997 5.4 2.00664 5.08 1.68664L4.70667 1.3133C4.38667 0.993302 4.00444 0.833302 3.56 0.833302C3.11556 0.833302 2.73333 0.993302 2.41333 1.3133L2.09333 1.68664C1.91556 1.86441 1.79111 2.05997 1.72 2.2733H0.6C0.386667 2.23775 0.217778 2.31775 0.0933333 2.5133C-0.0311111 2.70886 -0.0311111 2.90441 0.0933333 3.09997C0.217778 3.29552 0.386667 3.37552 0.6 3.33997ZM2.78667 2.4333L3.16 2.05997C3.26667 1.9533 3.4 1.89997 3.56 1.89997C3.72 1.89997 3.83556 1.9533 3.90667 2.05997L4.33333 2.4333C4.44 2.53997 4.49333 2.66441 4.49333 2.80664C4.49333 2.94886 4.44 3.0733 4.33333 3.17997L3.96 3.5533C3.85333 3.65997 3.72 3.7133 3.56 3.7133C3.4 3.7133 3.26667 3.65997 3.16 3.5533L2.78667 3.17997C2.68 3.0733 2.62667 2.94886 2.62667 2.80664C2.62667 2.66441 2.68 2.53997 2.78667 2.4333ZM15.5333 7.60664H11.5867C11.3378 7.57108 11.16 7.65108 11.0533 7.84664C10.9467 8.04219 10.9467 8.23775 11.0533 8.4333C11.16 8.62886 11.3378 8.70886 11.5867 8.6733H15.5867C15.6933 8.6733 15.8 8.61997 15.9067 8.5133C16.0133 8.40664 16.0667 8.28219 16.0667 8.13997C16.0667 7.99775 16.0133 7.8733 15.9067 7.76664C15.8 7.65997 15.6933 7.60664 15.5867 7.60664H15.5333ZM0.6 8.6733H6.2C6.27111 8.88664 6.39556 9.08219 6.57333 9.25997L6.94667 9.6333C7.26667 9.9533 7.64 10.1133 8.06667 10.1133C8.49333 10.1133 8.86667 9.9533 9.18667 9.6333L9.56 9.25997C9.88 8.93997 10.04 8.56664 10.04 8.13997C10.04 7.7133 9.88 7.33997 9.56 7.01997L9.18667 6.64664C8.86667 6.32664 8.49333 6.16664 8.06667 6.16664C7.64 6.16664 7.26667 6.32664 6.94667 6.64664L6.57333 7.01997C6.39556 7.19775 6.27111 7.3933 6.2 7.60664H0.6C0.457778 7.64219 0.342222 7.70441 0.253333 7.7933C0.164444 7.88219 0.12 7.99775 0.12 8.13997C0.12 8.28219 0.164444 8.40664 0.253333 8.5133C0.342222 8.61997 0.457778 8.6733 0.6 8.6733ZM7.32 7.76664L7.69333 7.3933C7.8 7.28664 7.92444 7.2333 8.06667 7.2333C8.20889 7.2333 8.33333 7.28664 8.44 7.3933L8.81333 7.76664C8.92 7.8733 8.97333 7.99775 8.97333 8.13997C8.97333 8.28219 8.92 8.40664 8.81333 8.5133L8.44 8.88664C8.33333 8.9933 8.20889 9.04664 8.06667 9.04664C7.92444 9.04664 7.8 8.9933 7.69333 8.88664L7.32 8.5133C7.21333 8.40664 7.16 8.28219 7.16 8.13997C7.16 7.99775 7.21333 7.8733 7.32 7.76664ZM13.72 11.98C13.4 11.66 13.0178 11.5 12.5733 11.5C12.1289 11.5 11.7467 11.66 11.4267 11.98L11.0533 12.3533C10.8756 12.5311 10.7511 12.7266 10.68 12.94H0.6C0.386667 12.9044 0.217778 12.9844 0.0933333 13.18C-0.0311111 13.3755 -0.0311111 13.5711 0.0933333 13.7666C0.217778 13.9622 0.386667 14.0422 0.6 14.0066H10.68C10.7867 14.22 10.9111 14.4155 11.0533 14.5933L11.4267 14.9666C11.7467 15.2866 12.1289 15.4466 12.5733 15.4466C13.0178 15.4466 13.4 15.2866 13.72 14.9666L14.0933 14.5933C14.4133 14.2733 14.5733 13.9 14.5733 13.4733C14.5733 13.0466 14.4133 12.6733 14.0933 12.3533L13.72 11.98ZM13.3467 13.8466L12.9733 14.22C12.8667 14.3266 12.7422 14.38 12.6 14.38C12.4578 14.38 12.3333 14.3266 12.2267 14.22L11.8533 13.8466C11.7467 13.74 11.6933 13.6155 11.6933 13.4733C11.6933 13.3311 11.7467 13.2066 11.8533 13.1L12.2267 12.7266C12.3333 12.62 12.4578 12.5666 12.6 12.5666C12.7422 12.5666 12.8667 12.62 12.9733 12.7266L13.3467 13.1C13.4533 13.2066 13.5067 13.3311 13.5067 13.4733C13.5067 13.6155 13.4533 13.74 13.3467 13.8466ZM15.5333 14.0066C15.3556 14.0066 15.2133 13.9266 15.1067 13.7666C15 13.6066 14.9822 13.4377 15.0533 13.26C15.0533 13.1889 15.0889 13.1355 15.16 13.1C15.3022 12.9222 15.4889 12.8777 15.72 12.9666C15.9511 13.0555 16.0667 13.2244 16.0667 13.4733C16.0667 13.6155 16.0133 13.74 15.9067 13.8466C15.8 13.9533 15.6756 14.0066 15.5333 14.0066Z" fill="#181A20"/>
</g>
<defs>
<clipPath id="clip0_8114_51">
<rect width="16" height="16" fill="white" transform="matrix(1 0 0 -1 0 16.14)"/>
</clipPath>
</defs>
</svg>
