<svg width="56" height="26" viewBox="0 0 56 26" fill="none" xmlns="http://www.w3.org/2000/svg">
<g clip-path="url(#clip0_8136_1288)">
<path d="M55.6803 12.6638C55.6693 12.6163 55.6583 12.5702 55.6433 12.5242C54.8671 10.0004 53.2008 8.20955 50.8503 7.12775C50.4334 6.93652 49.8533 6.87231 49.4817 6.62524C48.2296 5.7947 46.8555 3.92703 45.5979 2.8885C43.7219 1.34048 41.4057 0.336853 38.9701 0.160973C34.2101 -0.185202 27.9402 -0.0121145 23.4503 1.63641C23.4448 1.6378 23.4407 1.64059 23.4352 1.64199C22.4437 2.00631 21.4878 2.46136 20.5731 2.99598L12.2695 7.85081C12.0706 7.96667 11.8498 8.03786 11.6222 8.06159C9.58433 8.28074 7.78235 8.09648 5.80894 8.98007C2.87421 10.2936 1.84842 12.4097 0.891201 15.3424C0.431791 16.7537 -0.459602 18.9089 0.28094 20.2587C1.13256 21.8109 3.12928 21.5834 4.78864 21.5485C5.37559 21.5359 5.91591 21.85 6.22035 22.3609C8.47763 26.1451 14.3814 25.8673 16.1573 21.575C16.2519 21.5582 16.3479 21.5485 16.4453 21.5485L41.5017 21.5527C42.0584 21.5527 42.5713 21.8486 42.8717 22.326C45.1331 25.9161 50.2688 25.905 52.5481 22.3064C52.8594 21.8151 53.4038 21.5303 53.977 21.5554C54.0963 21.561 54.2157 21.5666 54.335 21.5708C55.2456 21.6029 55.9984 20.8533 55.9984 19.9265V14.2746C55.9984 14.1518 55.9847 14.0303 55.9587 13.9103L55.6803 12.6624V12.6638ZM51.8391 9.85807C51.9488 9.73244 52.57 10.4178 52.6605 10.5253C53.375 11.3656 53.8125 12.3706 54.1375 13.4231C52.3835 13.0895 51.7184 11.5485 51.8391 9.85807ZM39.4103 1.9435C42.5247 2.26873 45.0124 4.49794 47.0201 6.73412C44.1292 6.81368 41.248 6.93931 38.3694 7.07052L37.7126 1.9435C38.2597 1.98398 38.8714 1.88766 39.4103 1.9435ZM23.331 3.58225C23.4393 3.52083 23.5518 3.46499 23.6683 3.42172C23.6683 3.42172 23.6683 3.42172 23.6697 3.42172C27.7468 1.9086 31.5702 1.76483 35.89 1.96025L36.0532 2.12775L36.6223 7.13054L15.5937 7.96248L23.3296 3.58364L23.331 3.58225ZM5.52095 11.1939C5.63341 12.6638 4.58568 13.8 3.22391 14.0917C2.95649 13.7372 4.96281 11.3251 5.52095 11.1939ZM11.7909 23.2026C6.40412 24.3318 5.15068 15.764 10.6444 15.2377C15.4867 14.7743 16.6634 22.1822 11.7909 23.2026ZM16.6894 19.7771C16.9486 15.0409 11.9856 11.7983 7.93868 14.3807C6.20664 15.4862 5.12188 17.6875 5.30291 19.7771C4.49654 19.6333 2.2324 20.1331 1.81139 19.3737C1.40958 18.6492 2.39148 16.8304 2.50805 15.9845C2.67536 15.7877 3.57909 15.7919 3.88354 15.7123C5.84323 15.2056 7.05689 13.599 7.27083 11.582C7.30511 11.2623 7.16797 10.408 7.38054 10.2447C10.5827 9.68359 13.8877 9.88599 17.1283 9.63334L16.8005 12.922C16.8032 15.2475 16.998 17.6219 17.8949 19.7743H16.6894V19.7771ZM30.8735 19.7799L19.7736 19.7576C18.2939 16.6322 18.2857 12.915 18.9823 9.57052L36.8376 8.85304C37.1983 13.183 36.1039 19.3625 30.8735 19.7799ZM47.714 23.3003C42.8195 23.3059 42.33 15.7277 47.3245 15.2391C52.7853 14.7045 53.0939 23.2947 47.714 23.3003ZM54.2472 19.7757H53.3709C53.6904 14.9795 48.519 11.7048 44.5118 14.4924C42.9018 15.6132 41.7512 17.7964 42.0927 19.7757H35.3044C37.4081 17.8243 38.4216 14.6626 38.5943 11.8109C38.6437 10.9859 38.4558 9.76036 38.5902 9.01915C38.6135 8.89213 38.6273 8.79302 38.7699 8.75673C41.4317 8.68554 44.0894 8.599 46.7526 8.52222C47.042 8.51385 47.3067 8.40637 47.6194 8.40078C48.567 8.38264 49.4172 8.37566 50.3072 8.74277C49.6339 11.7788 50.997 14.8553 54.2486 15.2042V19.7743L54.2472 19.7757Z" fill="#181A20"/>
<path d="M35.2703 10.2267C35.8984 10.8116 35.3801 11.6421 34.5833 11.7426C33.936 11.8236 32.0504 11.8417 31.425 11.7454C30.3115 11.5723 30.2703 10.1444 31.4278 9.97964C32.0942 9.88472 33.9154 9.88891 34.5956 9.96708C34.7986 9.99081 35.1236 10.0913 35.2703 10.2281V10.2267Z" fill="#181A20"/>
<path d="M12.9294 17.2521C15.3417 19.6698 12.0627 23.5028 9.41048 21.5584C6.18501 19.1924 10.1634 14.4799 12.9294 17.2521ZM10.2648 18.4735C9.36111 19.3347 10.6145 21.0112 11.7116 20.002C12.6798 19.1114 11.2426 17.5411 10.2648 18.4735Z" fill="#181A20"/>
<path d="M47.4357 16.4579C50.9917 16.0796 51.458 21.5458 48.2709 21.9953C44.2363 22.5634 43.8784 16.8361 47.4357 16.4579ZM47.4289 18.2376C46.0191 18.5545 46.8337 20.9651 48.216 20.1555C49.2624 19.5427 48.6124 17.971 47.4289 18.2376Z" fill="#181A20"/>
</g>
<defs>
<clipPath id="clip0_8136_1288">
<rect width="56" height="25" fill="white" transform="translate(0 0.0145264)"/>
</clipPath>
</defs>
</svg>
