<svg width="23" height="24" viewBox="0 0 23 24" fill="none" xmlns="http://www.w3.org/2000/svg">
<path d="M21.5301 17.9777C21.5301 19.0153 21.1554 19.9088 20.406 20.6582C19.6566 21.4075 18.7343 21.7822 17.6391 21.7822H5.3609C4.32331 21.7822 3.42982 21.4075 2.68045 20.6582C1.93108 19.9088 1.55639 19.0153 1.55639 17.9777V5.69953C1.49875 4.60429 1.84461 3.68198 2.59398 2.93261C3.34336 2.18324 4.26566 1.80855 5.3609 1.80855H12.2782V0.338623H5.3609C4.66917 0.338623 3.99185 0.468321 3.32895 0.72772C2.66604 0.987118 2.07519 1.37622 1.55639 1.89501C1.03759 2.41381 0.648496 3.00466 0.389098 3.66757C0.129699 4.33048 0 5.0078 0 5.69953V17.9777C0 18.6694 0.129699 19.3468 0.389098 20.0097C0.648496 20.6726 1.03759 21.2634 1.55639 21.7822C2.07519 22.301 2.66604 22.6901 3.32895 22.9495C3.99185 23.2089 4.66917 23.3386 5.3609 23.3386H17.6391C18.3308 23.3386 19.0081 23.2089 19.6711 22.9495C20.334 22.6901 20.9248 22.301 21.4436 21.7822C21.9624 21.2634 22.3515 20.6726 22.6109 20.0097C22.8703 19.3468 23 18.6694 23 17.9777V11.0604H21.5301V17.9777ZM22.2218 0.338623H15.3045V1.80855H20.406L10.9812 11.3198L12.0188 12.3574L21.5301 2.93261V7.94765H23V1.11682C23 0.886242 22.9279 0.698898 22.7838 0.554789C22.6397 0.410679 22.4524 0.338623 22.2218 0.338623Z" fill="#181A20"/>
</svg>
