<svg width="13" height="13" viewBox="0 0 13 13" fill="none" xmlns="http://www.w3.org/2000/svg">
<path d="M6.28519 3.60547C8.00784 3.60547 9.42972 5.02734 9.42972 6.75C9.42972 8.5 8.00784 9.89453 6.28519 9.89453C4.53519 9.89453 3.14066 8.5 3.14066 6.75C3.14066 5.02734 4.53519 3.60547 6.28519 3.60547ZM6.28519 8.80078C7.40628 8.80078 8.30863 7.89844 8.30863 6.75C8.30863 5.62891 7.40628 4.72656 6.28519 4.72656C5.13675 4.72656 4.23441 5.62891 4.23441 6.75C4.23441 7.89844 5.16409 8.80078 6.28519 8.80078ZM10.2774 3.49609C10.2774 3.90625 9.94925 4.23438 9.53909 4.23438C9.12894 4.23438 8.80081 3.90625 8.80081 3.49609C8.80081 3.08594 9.12894 2.75781 9.53909 2.75781C9.94925 2.75781 10.2774 3.08594 10.2774 3.49609ZM12.3555 4.23438C12.4102 5.24609 12.4102 8.28125 12.3555 9.29297C12.3008 10.2773 12.0821 11.125 11.3711 11.8633C10.6602 12.5742 9.78519 12.793 8.80081 12.8477C7.78909 12.9023 4.75394 12.9023 3.74222 12.8477C2.75784 12.793 1.91019 12.5742 1.17191 11.8633C0.460969 11.125 0.242219 10.2773 0.187531 9.29297C0.132844 8.28125 0.132844 5.24609 0.187531 4.23438C0.242219 3.25 0.460969 2.375 1.17191 1.66406C1.91019 0.953125 2.75784 0.734375 3.74222 0.679688C4.75394 0.625 7.78909 0.625 8.80081 0.679688C9.78519 0.734375 10.6602 0.953125 11.3711 1.66406C12.0821 2.375 12.3008 3.25 12.3555 4.23438ZM11.043 10.3594C11.3711 9.56641 11.2891 7.65234 11.2891 6.75C11.2891 5.875 11.3711 3.96094 11.043 3.14062C10.8243 2.62109 10.4141 2.18359 9.89456 1.99219C9.07425 1.66406 7.16019 1.74609 6.28519 1.74609C5.38284 1.74609 3.46878 1.66406 2.67581 1.99219C2.12894 2.21094 1.71878 2.62109 1.50003 3.14062C1.17191 3.96094 1.25394 5.875 1.25394 6.75C1.25394 7.65234 1.17191 9.56641 1.50003 10.3594C1.71878 10.9062 2.12894 11.3164 2.67581 11.5352C3.46878 11.8633 5.38284 11.7812 6.28519 11.7812C7.16019 11.7812 9.07425 11.8633 9.89456 11.5352C10.4141 11.3164 10.8516 10.9062 11.043 10.3594Z" fill="white"/>
</svg>
