<svg width="13" height="13" viewBox="0 0 13 13" fill="none" xmlns="http://www.w3.org/2000/svg">
<path d="M3.44906 13H0.906094V4.82422H3.44906V13ZM2.16391 3.73047C1.37094 3.73047 0.714688 3.04688 0.714688 2.22656C0.714688 1.43359 1.37094 0.777344 2.16391 0.777344C2.98422 0.777344 3.64047 1.43359 3.64047 2.22656C3.64047 3.04688 2.98422 3.73047 2.16391 3.73047ZM12.9373 13H10.4217V9.03516C10.4217 8.07812 10.3944 6.875 9.08188 6.875C7.76938 6.875 7.57797 7.88672 7.57797 8.95312V13H5.035V4.82422H7.46859V5.94531H7.49594C7.85141 5.31641 8.67172 4.63281 9.90219 4.63281C12.4725 4.63281 12.9647 6.32812 12.9647 8.51562V13H12.9373Z" fill="white"/>
</svg>
