<svg width="134" height="35" viewBox="0 0 134 35" fill="none" xmlns="http://www.w3.org/2000/svg">
<g clip-path="url(#clip0_8117_2695)">
<path fill-rule="evenodd" clip-rule="evenodd" d="M51.804 17.8498H50.4912L55.3158 7.85717H56.3332L61.2124 17.8498H59.8814C57.0771 12.2095 58.5978 15.2073 55.8226 9.57071C53.6237 14.0785 53.817 13.6936 51.8004 17.8498H51.804ZM68.761 16.3435L69.4721 15.2702C70.1686 15.8179 70.8943 16.2324 71.6455 16.5248C72.3967 16.8135 73.1443 16.9578 73.8809 16.9578C74.7926 16.9578 75.5292 16.7617 76.0981 16.3694C76.667 15.9771 76.9514 15.4737 76.9514 14.8594C76.9514 14.3709 76.7472 13.9712 76.3388 13.6529C75.9304 13.3383 75.3688 13.1495 74.6504 13.0866C74.4753 13.0681 74.2274 13.0496 73.9028 13.0348C72.2837 12.9164 71.1824 12.7239 70.5916 12.4538C70.1358 12.228 69.7857 11.9393 69.5487 11.5877C69.3117 11.2324 69.1913 10.8364 69.1913 10.396C69.1913 9.59292 69.5451 8.93045 70.2525 8.40861C70.96 7.89048 71.8789 7.63141 73.0094 7.63141C73.8299 7.63141 74.6394 7.76834 75.4417 8.04221C76.244 8.31609 77.0025 8.72689 77.7209 9.26353L77.0098 10.3035C76.4008 9.80757 75.7663 9.43378 75.0953 9.17841C74.4243 8.92674 73.7387 8.80091 73.0313 8.80091C72.2873 8.80091 71.6784 8.94895 71.1933 9.24133C70.712 9.5337 70.4713 9.9038 70.4713 10.3442C70.4713 10.5182 70.5114 10.6773 70.588 10.8216C70.6646 10.966 70.7849 11.1066 70.9454 11.2324C71.3502 11.5396 72.2254 11.7358 73.571 11.8209C74.1873 11.8579 74.6686 11.8949 75.0078 11.9393C76.0069 12.0541 76.7983 12.3797 77.3817 12.9164C77.9616 13.453 78.2569 14.1118 78.2569 14.8964C78.2569 15.829 77.8595 16.5988 77.0572 17.2021C76.2549 17.8054 75.2047 18.1088 73.9101 18.1088C72.9292 18.1088 72.0175 17.9645 71.1751 17.6758C70.3327 17.3871 69.5305 16.943 68.772 16.3435H68.761ZM86.6589 16.3435L87.37 15.2702C88.0665 15.8179 88.7922 16.2324 89.5434 16.5248C90.2946 16.8135 91.0422 16.9578 91.7788 16.9578C92.6905 16.9578 93.4271 16.7617 93.996 16.3694C94.5648 15.9771 94.8493 15.4737 94.8493 14.8594C94.8493 14.3709 94.6451 13.9712 94.2366 13.6529C93.8282 13.3383 93.2666 13.1495 92.5482 13.0866C92.3732 13.0681 92.1252 13.0496 91.8007 13.0348C90.1815 12.9164 89.0802 12.7239 88.4895 12.4538C88.0337 12.228 87.6836 11.9393 87.4465 11.5877C87.2095 11.2324 87.0892 10.8364 87.0892 10.396C87.0892 9.59292 87.4429 8.93045 88.1504 8.40861C88.8578 7.89048 89.7768 7.63141 90.9072 7.63141C91.7277 7.63141 92.5373 7.76834 93.3396 8.04221C94.1418 8.31609 94.9003 8.72689 95.6187 9.26353L94.9076 10.3035C94.2986 9.80757 93.6641 9.43378 92.9931 9.17841C92.3221 8.92674 91.6366 8.80091 90.9291 8.80091C90.1852 8.80091 89.5762 8.94895 89.0912 9.24133C88.6098 9.5337 88.3692 9.9038 88.3692 10.3442C88.3692 10.5182 88.4093 10.6773 88.4858 10.8216C88.5624 10.966 88.6828 11.1066 88.8432 11.2324C89.248 11.5396 90.1232 11.7358 91.4688 11.8209C92.0851 11.8579 92.5665 11.8949 92.9056 11.9393C93.9048 12.0541 94.6961 12.3797 95.2796 12.9164C95.8594 13.453 96.1548 14.1118 96.1548 14.8964C96.1548 15.829 95.7573 16.5988 94.955 17.2021C94.1528 17.8054 93.1025 18.1088 91.808 18.1088C90.827 18.1088 89.9153 17.9645 89.073 17.6758C88.2306 17.3871 87.4283 16.943 86.6698 16.3435H86.6589ZM105.512 17.8498V7.80165H106.756V17.8498H105.512ZM116.704 17.8498V7.85717H124.449V9.00817H117.929V11.9356H121.875V13.0829H117.929V17.8461H116.704V17.8498ZM132.756 17.8498V7.80165H134V17.8498H132.756ZM34.9272 7.83866V17.8498H36.1525V14.2931L38.5411 12.2576L42.5269 17.8498H44.0074L39.4272 11.3953L43.4057 7.83866H41.8012L36.1525 12.8239V7.83866H34.9272Z" fill="#231F20"/>
<mask id="mask0_8117_2695" style="mask-type:luminance" maskUnits="userSpaceOnUse" x="34" y="7" width="100" height="12">
<path d="M51.804 17.8498H50.4912L55.3158 7.85717H56.3332L61.2124 17.8498H59.8814C57.0771 12.2095 58.5978 15.2073 55.8226 9.57071C53.6237 14.0785 53.817 13.6936 51.8004 17.8498H51.804ZM68.761 16.3435L69.4721 15.2702C70.1686 15.8179 70.8943 16.2324 71.6455 16.5248C72.3967 16.8135 73.1443 16.9578 73.8809 16.9578C74.7926 16.9578 75.5292 16.7617 76.0981 16.3694C76.667 15.9771 76.9514 15.4737 76.9514 14.8594C76.9514 14.3709 76.7472 13.9712 76.3388 13.6529C75.9304 13.3383 75.3688 13.1495 74.6504 13.0866C74.4753 13.0681 74.2274 13.0496 73.9028 13.0348C72.2837 12.9164 71.1824 12.7239 70.5916 12.4538C70.1358 12.228 69.7857 11.9393 69.5487 11.5877C69.3117 11.2324 69.1913 10.8364 69.1913 10.396C69.1913 9.59292 69.5451 8.93045 70.2525 8.40861C70.96 7.89048 71.8789 7.63141 73.0094 7.63141C73.8299 7.63141 74.6394 7.76834 75.4417 8.04221C76.244 8.31609 77.0025 8.72689 77.7209 9.26353L77.0098 10.3035C76.4008 9.80757 75.7663 9.43378 75.0953 9.17841C74.4243 8.92674 73.7387 8.80091 73.0313 8.80091C72.2873 8.80091 71.6784 8.94895 71.1933 9.24133C70.712 9.5337 70.4713 9.9038 70.4713 10.3442C70.4713 10.5182 70.5114 10.6773 70.588 10.8216C70.6646 10.966 70.7849 11.1066 70.9454 11.2324C71.3502 11.5396 72.2254 11.7358 73.571 11.8209C74.1873 11.8579 74.6686 11.8949 75.0078 11.9393C76.0069 12.0541 76.7983 12.3797 77.3817 12.9164C77.9616 13.453 78.2569 14.1118 78.2569 14.8964C78.2569 15.829 77.8595 16.5988 77.0572 17.2021C76.2549 17.8054 75.2047 18.1088 73.9101 18.1088C72.9292 18.1088 72.0175 17.9645 71.1751 17.6758C70.3327 17.3871 69.5305 16.943 68.772 16.3435H68.761ZM86.6589 16.3435L87.37 15.2702C88.0665 15.8179 88.7922 16.2324 89.5434 16.5248C90.2946 16.8135 91.0422 16.9578 91.7788 16.9578C92.6905 16.9578 93.4271 16.7617 93.996 16.3694C94.5648 15.9771 94.8493 15.4737 94.8493 14.8594C94.8493 14.3709 94.6451 13.9712 94.2366 13.6529C93.8282 13.3383 93.2666 13.1495 92.5482 13.0866C92.3732 13.0681 92.1252 13.0496 91.8007 13.0348C90.1815 12.9164 89.0802 12.7239 88.4895 12.4538C88.0337 12.228 87.6836 11.9393 87.4465 11.5877C87.2095 11.2324 87.0892 10.8364 87.0892 10.396C87.0892 9.59292 87.4429 8.93045 88.1504 8.40861C88.8578 7.89048 89.7768 7.63141 90.9072 7.63141C91.7277 7.63141 92.5373 7.76834 93.3396 8.04221C94.1418 8.31609 94.9003 8.72689 95.6187 9.26353L94.9076 10.3035C94.2986 9.80757 93.6641 9.43378 92.9931 9.17841C92.3221 8.92674 91.6366 8.80091 90.9291 8.80091C90.1852 8.80091 89.5762 8.94895 89.0912 9.24133C88.6098 9.5337 88.3692 9.9038 88.3692 10.3442C88.3692 10.5182 88.4093 10.6773 88.4858 10.8216C88.5624 10.966 88.6828 11.1066 88.8432 11.2324C89.248 11.5396 90.1232 11.7358 91.4688 11.8209C92.0851 11.8579 92.5665 11.8949 92.9056 11.9393C93.9048 12.0541 94.6961 12.3797 95.2796 12.9164C95.8594 13.453 96.1548 14.1118 96.1548 14.8964C96.1548 15.829 95.7573 16.5988 94.955 17.2021C94.1528 17.8054 93.1025 18.1088 91.808 18.1088C90.827 18.1088 89.9153 17.9645 89.073 17.6758C88.2306 17.3871 87.4283 16.943 86.6698 16.3435H86.6589ZM105.512 17.8498V7.80165H106.756V17.8498H105.512ZM116.704 17.8498V7.85717H124.449V9.00817H117.929V11.9356H121.875V13.0829H117.929V17.8461H116.704V17.8498ZM132.756 17.8498V7.80165H134V17.8498H132.756ZM34.9272 7.83866V17.8498H36.1525V14.2931L38.5411 12.2576L42.5269 17.8498H44.0074L39.4272 11.3953L43.4057 7.83866H41.8012L36.1525 12.8239V7.83866H34.9272Z" fill="white"/>
</mask>
<g mask="url(#mask0_8117_2695)">
<path d="M134 7.63519H34.9272V18.1089H134V7.63519Z" fill="white"/>
</g>
<path d="M55.5127 24.2747H34.9272V24.6411H55.5127V24.2747Z" fill="white"/>
<mask id="mask1_8117_2695" style="mask-type:luminance" maskUnits="userSpaceOnUse" x="34" y="24" width="22" height="1">
<path d="M55.5127 24.2747H34.9272V24.6411H55.5127V24.2747Z" fill="white"/>
</mask>
<g mask="url(#mask1_8117_2695)">
<path d="M55.5127 24.2747H34.9272V24.6411H55.5127V24.2747Z" fill="white"/>
</g>
<path d="M134 24.2747H113.415V24.6411H134V24.2747Z" fill="white"/>
<mask id="mask2_8117_2695" style="mask-type:luminance" maskUnits="userSpaceOnUse" x="113" y="24" width="21" height="1">
<path d="M134 24.2747H113.415V24.6411H134V24.2747Z" fill="white"/>
</mask>
<g mask="url(#mask2_8117_2695)">
<path d="M134 24.2747H113.415V24.6411H134V24.2747Z" fill="white"/>
</g>
<path d="M57.5186 27.2391V22.4427H58.113V27.2391H57.5186ZM63.5793 27.2391V22.4686H64.119L66.0189 25.3886L67.9298 22.4686H68.4622V27.2391H67.886V23.5159L66.0189 26.3361L64.1518 23.5159V27.2391H63.5757H63.5793ZM75.8358 21.8838H75.4456L76.3354 20.3701H76.9808L75.8358 21.8838ZM75.9743 27.3612C75.2705 27.3612 74.6871 27.1244 74.2312 26.6543C73.7717 26.1843 73.5457 25.5848 73.5457 24.8631C73.5457 24.1414 73.7754 23.5381 74.2349 23.0681C74.6944 22.5981 75.2742 22.3612 75.9743 22.3612C76.6745 22.3612 77.2616 22.5981 77.7247 23.0718C78.1879 23.5455 78.4176 24.1414 78.4176 24.8631C78.4176 25.5848 78.1879 26.1843 77.7247 26.6543C77.2653 27.1244 76.6781 27.3612 75.9743 27.3612ZM75.978 26.8061C76.5067 26.8061 76.9443 26.6247 77.2908 26.2583C77.6372 25.892 77.8086 25.4293 77.8086 24.8668C77.8086 24.3042 77.6372 23.8379 77.2908 23.4715C76.948 23.1051 76.5067 22.9238 75.978 22.9238C75.4492 22.9238 75.0116 23.1088 74.6652 23.4752C74.3188 23.8416 74.1474 24.3079 74.1474 24.8668C74.1474 25.4256 74.3188 25.892 74.6652 26.2583C75.0116 26.6247 75.4492 26.8061 75.978 26.8061ZM85.39 27.2391H85.0254L82.7608 22.4686H83.3953L85.2077 26.2917L87.0201 22.4686H87.6655L85.3864 27.2391H85.39ZM92.3916 27.2391V22.4686H96.0893V23.0163H92.9751V24.4153H94.8604V24.963H92.9751V26.6877H96.279V27.2354H92.388L92.3916 27.2391ZM101.242 27.2391V22.4427H101.836V27.2391H101.242ZM106.88 26.5211L107.219 26.0104C107.551 26.2732 107.897 26.4693 108.258 26.6099C108.616 26.7469 108.973 26.8172 109.327 26.8172C109.761 26.8172 110.114 26.7247 110.384 26.5359C110.658 26.3472 110.793 26.1066 110.793 25.8142C110.793 25.5811 110.694 25.3886 110.501 25.2406C110.308 25.0888 110.038 25 109.695 24.9704C109.611 24.963 109.494 24.9519 109.338 24.9445C108.565 24.889 108.039 24.7965 107.755 24.6669C107.536 24.5596 107.368 24.4227 107.255 24.2524C107.142 24.0822 107.084 23.8934 107.084 23.6825C107.084 23.2976 107.252 22.983 107.591 22.735C107.926 22.4871 108.368 22.3649 108.907 22.3649C109.301 22.3649 109.688 22.4316 110.067 22.5611C110.45 22.6906 110.811 22.8868 111.157 23.1421L110.818 23.6381C110.527 23.4012 110.224 23.2236 109.903 23.1014C109.582 22.983 109.254 22.9201 108.918 22.9201C108.565 22.9201 108.273 22.9904 108.039 23.131C107.81 23.2717 107.697 23.4456 107.697 23.6566C107.697 23.738 107.715 23.8157 107.751 23.886C107.788 23.9563 107.846 24.023 107.923 24.0822C108.116 24.2265 108.532 24.3227 109.177 24.3635C109.473 24.382 109.702 24.4005 109.863 24.419C110.341 24.4745 110.716 24.6299 110.997 24.8853C111.274 25.1407 111.413 25.4552 111.413 25.829C111.413 26.2732 111.223 26.6432 110.84 26.9282C110.457 27.2169 109.958 27.3612 109.338 27.3612C108.871 27.3612 108.433 27.2909 108.032 27.154C107.631 27.017 107.248 26.8061 106.883 26.5174L106.88 26.5211Z" fill="white"/>
<mask id="mask3_8117_2695" style="mask-type:luminance" maskUnits="userSpaceOnUse" x="57" y="20" width="55" height="8">
<path d="M57.5186 27.2391V22.4427H58.113V27.2391H57.5186ZM63.5793 27.2391V22.4686H64.119L66.0189 25.3886L67.9298 22.4686H68.4622V27.2391H67.886V23.5159L66.0189 26.3361L64.1518 23.5159V27.2391H63.5757H63.5793ZM75.8358 21.8838H75.4456L76.3354 20.3701H76.9808L75.8358 21.8838ZM75.9743 27.3612C75.2705 27.3612 74.6871 27.1244 74.2312 26.6543C73.7717 26.1843 73.5457 25.5848 73.5457 24.8631C73.5457 24.1414 73.7754 23.5381 74.2349 23.0681C74.6944 22.5981 75.2742 22.3612 75.9743 22.3612C76.6745 22.3612 77.2616 22.5981 77.7247 23.0718C78.1879 23.5455 78.4176 24.1414 78.4176 24.8631C78.4176 25.5848 78.1879 26.1843 77.7247 26.6543C77.2653 27.1244 76.6781 27.3612 75.9743 27.3612ZM75.978 26.8061C76.5067 26.8061 76.9443 26.6247 77.2908 26.2583C77.6372 25.892 77.8086 25.4293 77.8086 24.8668C77.8086 24.3042 77.6372 23.8379 77.2908 23.4715C76.948 23.1051 76.5067 22.9238 75.978 22.9238C75.4492 22.9238 75.0116 23.1088 74.6652 23.4752C74.3188 23.8416 74.1474 24.3079 74.1474 24.8668C74.1474 25.4256 74.3188 25.892 74.6652 26.2583C75.0116 26.6247 75.4492 26.8061 75.978 26.8061ZM85.39 27.2391H85.0254L82.7608 22.4686H83.3953L85.2077 26.2917L87.0201 22.4686H87.6655L85.3864 27.2391H85.39ZM92.3916 27.2391V22.4686H96.0893V23.0163H92.9751V24.4153H94.8604V24.963H92.9751V26.6877H96.279V27.2354H92.388L92.3916 27.2391ZM101.242 27.2391V22.4427H101.836V27.2391H101.242ZM106.88 26.5211L107.219 26.0104C107.551 26.2732 107.897 26.4693 108.258 26.6099C108.616 26.7469 108.973 26.8172 109.327 26.8172C109.761 26.8172 110.114 26.7247 110.384 26.5359C110.658 26.3472 110.793 26.1066 110.793 25.8142C110.793 25.5811 110.694 25.3886 110.501 25.2406C110.308 25.0888 110.038 25 109.695 24.9704C109.611 24.963 109.494 24.9519 109.338 24.9445C108.565 24.889 108.039 24.7965 107.755 24.6669C107.536 24.5596 107.368 24.4227 107.255 24.2524C107.142 24.0822 107.084 23.8934 107.084 23.6825C107.084 23.2976 107.252 22.983 107.591 22.735C107.926 22.4871 108.368 22.3649 108.907 22.3649C109.301 22.3649 109.688 22.4316 110.067 22.5611C110.45 22.6906 110.811 22.8868 111.157 23.1421L110.818 23.6381C110.527 23.4012 110.224 23.2236 109.903 23.1014C109.582 22.983 109.254 22.9201 108.918 22.9201C108.565 22.9201 108.273 22.9904 108.039 23.131C107.81 23.2717 107.697 23.4456 107.697 23.6566C107.697 23.738 107.715 23.8157 107.751 23.886C107.788 23.9563 107.846 24.023 107.923 24.0822C108.116 24.2265 108.532 24.3227 109.177 24.3635C109.473 24.382 109.702 24.4005 109.863 24.419C110.341 24.4745 110.716 24.6299 110.997 24.8853C111.274 25.1407 111.413 25.4552 111.413 25.829C111.413 26.2732 111.223 26.6432 110.84 26.9282C110.457 27.2169 109.958 27.3612 109.338 27.3612C108.871 27.3612 108.433 27.2909 108.032 27.154C107.631 27.017 107.248 26.8061 106.883 26.5174L106.88 26.5211Z" fill="white"/>
</mask>
<g mask="url(#mask3_8117_2695)">
<path d="M111.409 20.3701H57.5186V27.3612H111.409V20.3701Z" fill="white"/>
</g>
<path fill-rule="evenodd" clip-rule="evenodd" d="M7.8144 5.396V0H2.49756V5.396H7.8144ZM7.8144 12.5537V7.21317H2.49756V17.9497L7.8144 12.5537ZM2.49756 35H7.8144V24.1266L2.49756 29.5226V35.0037V35Z" fill="white"/>
<mask id="mask4_8117_2695" style="mask-type:luminance" maskUnits="userSpaceOnUse" x="2" y="0" width="6" height="36">
<path d="M7.8144 5.396V0H2.49756V5.396H7.8144ZM7.8144 12.5537V7.21317H2.49756V17.9497L7.8144 12.5537ZM2.49756 35H7.8144V24.1266L2.49756 29.5226V35.0037V35Z" fill="white"/>
</mask>
<g mask="url(#mask4_8117_2695)">
<path d="M7.8144 0H2.49756V35H7.8144V0Z" fill="white"/>
</g>
<path fill-rule="evenodd" clip-rule="evenodd" d="M-3.27148 0V25.9326L5.95459 16.5692L22.2807 0H29.4865L26.2629 3.27165L-3.5231 33.5011L-5 35V0H-3.27148ZM27.0396 35H29.4865L24.6401 30.0814L13.2917 18.564L12.07 19.8038L27.0433 35H27.0396Z" fill="#005AAA"/>
<mask id="mask5_8117_2695" style="mask-type:luminance" maskUnits="userSpaceOnUse" x="-5" y="0" width="35" height="35">
<path d="M-3.27148 0V25.9326L5.95459 16.5692L22.2807 0H29.4865L26.2629 3.27165L-3.5231 33.5011L-5 35V0H-3.27148ZM27.0396 35H29.4865L24.6401 30.0814L13.2917 18.564L12.07 19.8038L27.0433 35H27.0396Z" fill="white"/>
</mask>
<g mask="url(#mask5_8117_2695)">
<path d="M29.4865 0H-5V35H29.4865V0Z" fill="white"/>
</g>
</g>
<defs>
<clipPath id="clip0_8117_2695">
<rect width="139" height="35" fill="white" transform="translate(-5)"/>
</clipPath>
</defs>
</svg>
