<svg width="191" height="47" viewBox="0 0 191 47" fill="none" xmlns="http://www.w3.org/2000/svg">
<g clip-path="url(#clip0_8154_293)">
<mask id="mask0_8154_293" style="mask-type:luminance" maskUnits="userSpaceOnUse" x="54" y="10" width="137" height="15">
<path d="M78.0546 23.9698H76.2507L82.8801 10.5512H84.2782L90.9827 23.9698H89.1538C85.3004 16.3958 87.3899 20.4214 83.5766 12.8523C80.5551 18.9055 80.8207 18.3887 78.0496 23.9698H78.0546ZM101.355 21.9471L102.332 20.5058C103.289 21.2414 104.287 21.798 105.319 22.1906C106.351 22.5783 107.378 22.7721 108.391 22.7721C109.643 22.7721 110.655 22.5087 111.437 21.9819C112.219 21.4551 112.61 20.7792 112.61 19.9542C112.61 19.2982 112.329 18.7614 111.768 18.334C111.207 17.9116 110.435 17.6581 109.448 17.5736C109.207 17.5488 108.867 17.5239 108.421 17.504C106.196 17.345 104.682 17.0866 103.871 16.7238C103.244 16.4206 102.763 16.033 102.438 15.5608C102.112 15.0837 101.947 14.5519 101.947 13.9605C101.947 12.8821 102.433 11.9925 103.405 11.2917C104.377 10.5959 105.64 10.248 107.193 10.248C108.32 10.248 109.433 10.4319 110.535 10.7997C111.638 11.1675 112.68 11.7191 113.667 12.4398L112.69 13.8363C111.853 13.1703 110.981 12.6684 110.059 12.3254C109.137 11.9875 108.195 11.8185 107.223 11.8185C106.201 11.8185 105.364 12.0173 104.698 12.4099C104.036 12.8026 103.705 13.2995 103.705 13.891C103.705 14.1245 103.76 14.3382 103.866 14.5321C103.971 14.7259 104.136 14.9147 104.357 15.0837C104.913 15.4962 106.116 15.7596 107.965 15.8739C108.811 15.9236 109.473 15.9733 109.939 16.033C111.312 16.187 112.399 16.6244 113.201 17.345C113.998 18.0656 114.404 18.9503 114.404 20.0039C114.404 21.2563 113.857 22.29 112.755 23.1001C111.653 23.9102 110.21 24.3177 108.431 24.3177C107.083 24.3177 105.83 24.1239 104.672 23.7363C103.515 23.3486 102.413 22.7522 101.37 21.9471H101.355ZM125.949 21.9471L126.926 20.5058C127.883 21.2414 128.88 21.798 129.912 22.1906C130.945 22.5783 131.972 22.7721 132.984 22.7721C134.237 22.7721 135.249 22.5087 136.031 21.9819C136.812 21.4551 137.203 20.7792 137.203 19.9542C137.203 19.2982 136.923 18.7614 136.361 18.334C135.8 17.9116 135.028 17.6581 134.041 17.5736C133.801 17.5488 133.46 17.5239 133.014 17.504C130.789 17.345 129.276 17.0866 128.464 16.7238C127.838 16.4206 127.357 16.033 127.031 15.5608C126.705 15.0837 126.54 14.5519 126.54 13.9605C126.54 12.8821 127.026 11.9925 127.998 11.2917C128.97 10.5959 130.233 10.248 131.786 10.248C132.914 10.248 134.026 10.4319 135.129 10.7997C136.231 11.1675 137.273 11.7191 138.26 12.4398L137.283 13.8363C136.447 13.1703 135.575 12.6684 134.653 12.3254C133.731 11.9875 132.789 11.8185 131.816 11.8185C130.794 11.8185 129.957 12.0173 129.291 12.4099C128.63 12.8026 128.299 13.2995 128.299 13.891C128.299 14.1245 128.354 14.3382 128.459 14.5321C128.564 14.7259 128.73 14.9147 128.95 15.0837C129.506 15.4962 130.709 15.7596 132.558 15.8739C133.405 15.9236 134.066 15.9733 134.532 16.033C135.905 16.187 136.993 16.6244 137.794 17.345C138.591 18.0656 138.997 18.9503 138.997 20.0039C138.997 21.2563 138.451 22.29 137.348 23.1001C136.246 23.9102 134.803 24.3177 133.024 24.3177C131.676 24.3177 130.423 24.1239 129.266 23.7363C128.108 23.3486 127.006 22.7522 125.964 21.9471H125.949ZM151.855 23.9698V10.4767H153.564V23.9698H151.855ZM167.233 23.9698V10.5512H177.877V12.0968H168.917V16.028H174.339V17.5687H168.917V23.9649H167.233V23.9698ZM189.291 23.9698V10.4767H191V23.9698H189.291ZM54.8643 10.5264V23.9698H56.5479V19.1938L59.83 16.4604L65.3069 23.9698H67.3414L61.0477 15.3024L66.5146 10.5264H64.3098L56.5479 17.2208V10.5264H54.8643Z" fill="white"/>
</mask>
<g mask="url(#mask0_8154_293)">
<path d="M191 10.2534H54.8643V24.3181H191V10.2534Z" fill="url(#paint0_linear_8154_293)"/>
</g>
<mask id="mask1_8154_293" style="mask-type:luminance" maskUnits="userSpaceOnUse" x="54" y="32" width="30" height="2">
<path d="M83.1507 32.5977H54.8643V33.0897H83.1507V32.5977Z" fill="white"/>
</mask>
<g mask="url(#mask1_8154_293)">
<path d="M83.1507 32.5977H54.8643V33.0897H83.1507V32.5977Z" fill="url(#paint1_linear_8154_293)"/>
</g>
<mask id="mask2_8154_293" style="mask-type:luminance" maskUnits="userSpaceOnUse" x="162" y="32" width="29" height="2">
<path d="M191 32.5977H162.713V33.0897H191V32.5977Z" fill="white"/>
</mask>
<g mask="url(#mask2_8154_293)">
<path d="M191 32.5977H162.713V33.0897H191V32.5977Z" fill="url(#paint2_linear_8154_293)"/>
</g>
<mask id="mask3_8154_293" style="mask-type:luminance" maskUnits="userSpaceOnUse" x="85" y="27" width="75" height="10">
<path d="M85.9067 36.5786V30.1376H86.7235V36.5786H85.9067ZM94.2348 36.5786V30.1724H94.9764L97.5871 34.0936L100.213 30.1724H100.944V36.5786H100.153V31.5789L97.5871 35.3659L95.0215 31.5789V36.5786H94.2298H94.2348ZM111.076 29.3872H110.54L111.763 27.3545H112.65L111.076 29.3872ZM111.267 36.7426C110.3 36.7426 109.498 36.4245 108.872 35.7933C108.24 35.1621 107.93 34.357 107.93 33.3879C107.93 32.4188 108.245 31.6087 108.877 30.9775C109.508 30.3464 110.305 30.0283 111.267 30.0283C112.229 30.0283 113.036 30.3463 113.672 30.9825C114.308 31.6186 114.624 32.4188 114.624 33.3879C114.624 34.357 114.308 35.1621 113.672 35.7933C113.041 36.4245 112.234 36.7426 111.267 36.7426ZM111.272 35.9971C111.998 35.9971 112.6 35.7536 113.076 35.2615C113.552 34.7695 113.787 34.1483 113.787 33.3929C113.787 32.6375 113.552 32.0113 113.076 31.5192C112.605 31.0272 111.998 30.7837 111.272 30.7837C110.545 30.7837 109.944 31.0322 109.468 31.5242C108.992 32.0162 108.756 32.6424 108.756 33.3929C108.756 34.1433 108.992 34.7695 109.468 35.2615C109.944 35.7536 110.545 35.9971 111.272 35.9971ZM124.205 36.5786H123.704L120.592 30.1724H121.464L123.954 35.3063L126.445 30.1724H127.332L124.2 36.5786H124.205ZM133.826 36.5786V30.1724H138.907V30.9079H134.628V32.7866H137.218V33.5221H134.628V35.838H139.167V36.5736H133.821L133.826 36.5786ZM145.987 36.5786V30.1376H146.804V36.5786H145.987ZM153.734 35.6144L154.2 34.9286C154.656 35.2814 155.132 35.5448 155.628 35.7337C156.119 35.9176 156.61 36.012 157.096 36.012C157.693 36.012 158.179 35.8877 158.55 35.6343C158.925 35.3808 159.111 35.0578 159.111 34.6652C159.111 34.3521 158.976 34.0936 158.71 33.8948C158.444 33.6911 158.074 33.5718 157.603 33.532C157.487 33.5221 157.327 33.5072 157.111 33.4972C156.049 33.4227 155.328 33.2984 154.937 33.1245C154.636 32.9804 154.406 32.7965 154.25 32.5679C154.095 32.3393 154.015 32.0858 154.015 31.8025C154.015 31.2857 154.245 30.8632 154.711 30.5302C155.172 30.1973 155.779 30.0332 156.52 30.0332C157.061 30.0332 157.592 30.1227 158.114 30.2967C158.64 30.4706 159.136 30.734 159.612 31.0769L159.146 31.7429C158.745 31.4248 158.329 31.1863 157.888 31.0223C157.447 30.8632 156.996 30.7787 156.535 30.7787C156.049 30.7787 155.648 30.8732 155.328 31.062C155.012 31.2509 154.857 31.4844 154.857 31.7677C154.857 31.8771 154.882 31.9814 154.932 32.0759C154.982 32.1703 155.062 32.2597 155.167 32.3393C155.433 32.5331 156.004 32.6623 156.891 32.717C157.297 32.7418 157.613 32.7667 157.833 32.7915C158.489 32.8661 159.006 33.0748 159.391 33.4177C159.772 33.7606 159.963 34.1831 159.963 34.685C159.963 35.2814 159.702 35.7784 159.176 36.1611C158.65 36.5487 157.963 36.7426 157.111 36.7426C156.47 36.7426 155.869 36.6481 155.318 36.4643C154.766 36.2804 154.24 35.9971 153.739 35.6094L153.734 35.6144Z" fill="white"/>
</mask>
<g mask="url(#mask3_8154_293)">
<path d="M159.958 27.3545H85.9067V36.7426H159.958V27.3545Z" fill="url(#paint3_linear_8154_293)"/>
</g>
<mask id="mask4_8154_293" style="mask-type:luminance" maskUnits="userSpaceOnUse" x="10" y="0" width="8" height="48">
<path d="M17.6081 7.24606V0H10.3022V7.24606H17.6081ZM17.6081 16.8578V9.68626H10.3022V24.1038L17.6081 16.8578ZM10.3022 47H17.6081V32.3985L10.3022 39.6446V47.005V47Z" fill="white"/>
</mask>
<g mask="url(#mask4_8154_293)">
<path d="M17.6081 0H10.3022V47H17.6081V0Z" fill="url(#paint4_linear_8154_293)"/>
</g>
<mask id="mask5_8154_293" style="mask-type:luminance" maskUnits="userSpaceOnUse" x="0" y="0" width="48" height="47">
<path d="M2.37516 0V34.8238L15.0527 22.2501L37.4864 0H47.388L42.9583 4.39336L2.02941 44.9872L0 47V0H2.37516ZM44.0257 47H47.388L40.7285 40.3951L25.1346 24.9288L23.456 26.5937L44.0307 47H44.0257Z" fill="white"/>
</mask>
<g mask="url(#mask5_8154_293)">
<path d="M47.388 0H0V47H47.388V0Z" fill="url(#paint5_linear_8154_293)"/>
</g>
</g>
<defs>
<linearGradient id="paint0_linear_8154_293" x1="122.932" y1="24.3181" x2="122.932" y2="-3.17516" gradientUnits="userSpaceOnUse">
<stop stop-color="#9E7837"/>
<stop offset="0.22" stop-color="#F4E58A"/>
<stop offset="0.39" stop-color="#E3B76C"/>
<stop offset="0.56" stop-color="#845629"/>
<stop offset="0.64" stop-color="#A7753C"/>
<stop offset="0.85" stop-color="#402111"/>
<stop offset="1" stop-color="#D99F54"/>
</linearGradient>
<linearGradient id="paint1_linear_8154_293" x1="96.645" y1="32.8461" x2="5.26649" y2="32.8461" gradientUnits="userSpaceOnUse">
<stop stop-color="#9E7837"/>
<stop offset="0.22" stop-color="#F4E58A"/>
<stop offset="0.39" stop-color="#E3B76C"/>
<stop offset="0.56" stop-color="#845629"/>
<stop offset="0.64" stop-color="#A7753C"/>
<stop offset="0.85" stop-color="#402111"/>
<stop offset="1" stop-color="#D99F54"/>
</linearGradient>
<linearGradient id="paint2_linear_8154_293" x1="149.209" y1="32.8462" x2="240.588" y2="32.8462" gradientUnits="userSpaceOnUse">
<stop stop-color="#9E7837"/>
<stop offset="0.22" stop-color="#F4E58A"/>
<stop offset="0.39" stop-color="#E3B76C"/>
<stop offset="0.56" stop-color="#845629"/>
<stop offset="0.64" stop-color="#A7753C"/>
<stop offset="0.85" stop-color="#402111"/>
<stop offset="1" stop-color="#D99F54"/>
</linearGradient>
<linearGradient id="paint3_linear_8154_293" x1="122.932" y1="12.3902" x2="122.932" y2="42.7213" gradientUnits="userSpaceOnUse">
<stop stop-color="#9E7837"/>
<stop offset="0.22" stop-color="#F4E58A"/>
<stop offset="0.62" stop-color="#E3B76C"/>
<stop offset="0.9" stop-color="#A7753C"/>
<stop offset="1" stop-color="#D99F54"/>
</linearGradient>
<linearGradient id="paint4_linear_8154_293" x1="13.9552" y1="47" x2="13.9552" y2="-44.858" gradientUnits="userSpaceOnUse">
<stop stop-color="#9E7837"/>
<stop offset="0.22" stop-color="#F4E58A"/>
<stop offset="0.39" stop-color="#E3B76C"/>
<stop offset="0.56" stop-color="#845629"/>
<stop offset="0.64" stop-color="#A7753C"/>
<stop offset="0.85" stop-color="#402111"/>
<stop offset="1" stop-color="#D99F54"/>
</linearGradient>
<linearGradient id="paint5_linear_8154_293" x1="23.6915" y1="47" x2="23.6915" y2="-44.858" gradientUnits="userSpaceOnUse">
<stop stop-color="#9E7837"/>
<stop offset="0.22" stop-color="#F4E58A"/>
<stop offset="0.39" stop-color="#E3B76C"/>
<stop offset="0.56" stop-color="#845629"/>
<stop offset="0.64" stop-color="#A7753C"/>
<stop offset="0.85" stop-color="#402111"/>
<stop offset="1" stop-color="#D99F54"/>
</linearGradient>
<clipPath id="clip0_8154_293">
<rect width="191" height="47" fill="white"/>
</clipPath>
</defs>
</svg>
