<svg width="38" height="38" viewBox="0 0 38 38" fill="none" xmlns="http://www.w3.org/2000/svg">
<path d="M35.42 2.23C34.2067 1.01666 32.76 0.409996 31.08 0.409996H6.16C4.48 0.409996 3.03333 1.01666 1.82 2.23C0.606667 3.44333 0 4.89 0 6.57V33.87C0 34.71 0.21 35.4333 0.63 36.04C1.05 36.6467 1.61 37.09 2.31 37.37C3.01 37.65 3.73333 37.72 4.48 37.58C5.22667 37.44 5.83333 37.09 6.3 36.53L11.2 31.63H31.08C32.76 31.63 34.2067 31.0233 35.42 29.81C36.6333 28.5967 37.24 27.15 37.24 25.47V6.57C37.24 4.89 36.6333 3.44333 35.42 2.23ZM34.86 25.47C34.86 26.4967 34.4867 27.36 33.74 28.06C32.9933 28.76 32.1067 29.11 31.08 29.11H10.64C10.36 29.11 10.08 29.25 9.8 29.53L4.62 34.85C4.24667 35.2233 3.80333 35.2933 3.29 35.06C2.77667 34.8267 2.52 34.4767 2.52 34.01V6.57C2.52 5.54333 2.87 4.68 3.57 3.98C4.27 3.28 5.13333 2.93 6.16 2.93H31.08C32.1067 2.93 32.9933 3.28 33.74 3.98C34.4867 4.68 34.86 5.54333 34.86 6.57V25.47ZM17.92 6.85L7.98 13.01L9.24 15.11L11.06 13.99V20.29C11.06 21.3167 11.4333 22.2033 12.18 22.95C12.9267 23.6967 13.8133 24.07 14.84 24.07H22.26C23.2867 24.07 24.1733 23.6967 24.92 22.95C25.6667 22.2033 26.04 21.3167 26.04 20.29V13.99L27.86 15.11L29.26 13.01L19.32 6.85C18.8533 6.57 18.3867 6.57 17.92 6.85ZM23.66 20.29C23.5667 20.6633 23.4033 20.9667 23.17 21.2C22.9367 21.4333 22.68 21.55 22.4 21.55H14.84C14.56 21.55 14.28 21.4333 14 21.2C13.72 20.9667 13.58 20.6633 13.58 20.29V12.45L18.62 9.37L23.66 12.45V20.29Z" fill="#005AAA"/>
</svg>
