<svg width="19" height="19" viewBox="0 0 19 19" fill="none" xmlns="http://www.w3.org/2000/svg">
<path d="M17.8659 17.5258L13.7859 13.3858C14.6659 12.3458 15.2359 11.1658 15.4959 9.84582C15.7559 8.52582 15.6859 7.21582 15.2859 5.91582C14.8859 4.61582 14.1759 3.50582 13.1559 2.58582C12.1359 1.66582 10.9659 1.04582 9.64588 0.725819C8.32588 0.405819 7.01588 0.425819 5.71588 0.78582C4.41588 1.14582 3.27588 1.81582 2.29588 2.79582C1.31588 3.77582 0.645882 4.91582 0.285882 6.21582C-0.0741176 7.51582 -0.0941176 8.82582 0.225882 10.1458C0.545882 11.4658 1.16588 12.6358 2.08588 13.6558C3.00588 14.6758 4.11588 15.3858 5.41588 15.7858C6.71588 16.1858 8.02588 16.2558 9.34588 15.9958C10.6659 15.7358 11.8659 15.1658 12.9459 14.2858L17.0259 18.3658C17.1459 18.4858 17.2859 18.5358 17.4459 18.5158C17.6059 18.4958 17.7359 18.4358 17.8359 18.3358C17.9359 18.2358 17.9959 18.1058 18.0159 17.9458C18.0359 17.7858 17.9859 17.6458 17.8659 17.5258ZM1.24588 8.34582C1.24588 7.14582 1.54588 6.04582 2.14588 5.04582C2.74588 4.04582 3.54588 3.24582 4.54588 2.64582C5.54588 2.04582 6.64588 1.74582 7.84588 1.74582C9.04588 1.74582 10.1459 2.04582 11.1459 2.64582C12.1459 3.24582 12.9459 4.04582 13.5459 5.04582C14.1459 6.04582 14.4459 7.14582 14.4459 8.34582C14.4459 9.54582 14.1459 10.6458 13.5459 11.6458C12.9459 12.6458 12.1459 13.4458 11.1459 14.0458C10.1459 14.6458 9.04588 14.9458 7.84588 14.9458C6.64588 14.9458 5.54588 14.6458 4.54588 14.0458C3.54588 13.4458 2.74588 12.6458 2.14588 11.6458C1.54588 10.6458 1.24588 9.54582 1.24588 8.34582Z" fill="white"/>
</svg>
