<svg width="24" height="24" viewBox="0 0 24 24" fill="none" xmlns="http://www.w3.org/2000/svg">
<path d="M9.76692 1.33862H14.2331V2.68073H9.76692V1.33862ZM21.594 20.286C21.594 20.4439 21.5113 20.6018 21.3459 20.7597C21.1805 20.9176 21.015 20.9965 20.8496 20.9965H17.8722V22.3386H20.8496C21.4561 22.3386 21.9662 22.1413 22.3797 21.7465C22.7932 21.3518 23 20.8649 23 20.286V17.4439H21.594V20.286ZM20.8496 1.33862H17.8722V2.68073H20.8496C21.015 2.68073 21.1805 2.75968 21.3459 2.91757C21.5113 3.07547 21.594 3.23336 21.594 3.39125V6.23336H23V3.39125C23 2.81231 22.7932 2.32547 22.3797 1.93073C21.9662 1.53599 21.4561 1.33862 20.8496 1.33862ZM2.40602 3.39125C2.40602 3.23336 2.48872 3.07547 2.65414 2.91757C2.81955 2.75968 2.98496 2.68073 3.15038 2.68073H6.12782V1.33862H3.15038C2.54386 1.33862 2.03383 1.53599 1.6203 1.93073C1.20677 2.32547 1 2.81231 1 3.39125V6.23336H2.40602V3.39125ZM21.594 9.70704H23V13.9702H21.594V9.70704ZM17.8722 11.1281V6.94389C17.8722 6.73336 17.8033 6.56231 17.6654 6.43073C17.5276 6.29915 17.3484 6.23336 17.1278 6.23336H12.7444V7.65441H15.391L11.5038 11.3649C11.1729 11.207 10.8421 11.1281 10.5113 11.1281H3.15038C2.92982 11.1281 2.6817 11.1807 2.40602 11.286V9.70704H1V20.286C1 20.8649 1.20677 21.3518 1.6203 21.7465C2.03383 22.1413 2.54386 22.3386 3.15038 22.3386H14.2331V20.9965H12.5789C12.6892 20.7334 12.7444 20.4965 12.7444 20.286V13.2597C12.7444 12.9439 12.6617 12.6281 12.4962 12.3123L16.3835 8.60178V11.1281H17.8722ZM3.15038 20.9965C2.98496 20.9965 2.81955 20.9176 2.65414 20.7597C2.48872 20.6018 2.40602 20.4439 2.40602 20.286V13.2597C2.40602 13.0491 2.48872 12.8781 2.65414 12.7465C2.81955 12.6149 2.98496 12.5491 3.15038 12.5491H10.5113C10.7318 12.5491 10.911 12.6149 11.0489 12.7465C11.1867 12.8781 11.2556 13.0491 11.2556 13.2597V20.286C11.2556 20.4439 11.1867 20.6018 11.0489 20.7597C10.911 20.9176 10.7318 20.9965 10.5113 20.9965H3.15038Z" fill="#181A20"/>
</svg>
