<svg width="11" height="14" viewBox="0 0 11 14" fill="none" xmlns="http://www.w3.org/2000/svg">
<path d="M7.16569 11.6951L6.77224 11.3865L7.16569 11.6951ZM3.98494 11.6951L3.59149 12.0036L3.98494 11.6951ZM5.57532 13.0133V12.5133V13.0133ZM10.1506 5.92344H9.65063C9.65063 6.60527 9.29314 7.5301 8.71833 8.54633C8.15458 9.54299 7.42522 10.5539 6.77224 11.3865L7.16569 11.6951L7.55914 12.0036C8.22715 11.1518 8.99026 10.0967 9.58874 9.03866C10.1762 8.00015 10.6506 6.88142 10.6506 5.92344H10.1506ZM3.98494 11.6951L4.37839 11.3865C3.72542 10.5539 2.99605 9.54299 2.43231 8.54633C1.85749 7.5301 1.5 6.60527 1.5 5.92344H1H0.5C0.5 6.88142 0.974485 8.00015 1.5619 9.03866C2.16038 10.0967 2.92348 11.1518 3.59149 12.0036L3.98494 11.6951ZM1 5.92344H1.5C1.5 3.44528 3.35848 1.5 5.57532 1.5V1V0.5C2.7384 0.5 0.5 2.96332 0.5 5.92344H1ZM5.57532 1V1.5C7.79216 1.5 9.65063 3.44528 9.65063 5.92344H10.1506H10.6506C10.6506 2.96332 8.41224 0.5 5.57532 0.5V1ZM7.16569 11.6951L6.77224 11.3865C6.41669 11.8399 6.18782 12.1291 5.9846 12.3137C5.80278 12.4788 5.69199 12.5133 5.57532 12.5133V13.0133V13.5133C6.01525 13.5133 6.35506 13.3281 6.65698 13.0539C6.9375 12.7991 7.22551 12.4291 7.55914 12.0036L7.16569 11.6951ZM3.98494 11.6951L3.59149 12.0036C3.92512 12.4291 4.21314 12.7991 4.49365 13.0539C4.79558 13.3281 5.13539 13.5133 5.57532 13.5133V13.0133V12.5133C5.45864 12.5133 5.34785 12.4788 5.16604 12.3137C4.96281 12.1291 4.73394 11.8399 4.37839 11.3865L3.98494 11.6951ZM3.85957 6.14723H3.35957C3.35957 7.37095 4.3516 8.36298 5.57532 8.36298V7.86298V7.36298C4.90388 7.36298 4.35957 6.81867 4.35957 6.14723H3.85957ZM5.57532 7.86298V8.36298C6.79904 8.36298 7.79106 7.37095 7.79106 6.14723H7.29106H6.79106C6.79106 6.81867 6.24675 7.36298 5.57532 7.36298V7.86298ZM7.29106 6.14723H7.79106C7.79106 4.92351 6.79904 3.93149 5.57532 3.93149V4.43149V4.93149C6.24675 4.93149 6.79106 5.4758 6.79106 6.14723H7.29106ZM5.57532 4.43149V3.93149C4.3516 3.93149 3.35957 4.92351 3.35957 6.14723H3.85957H4.35957C4.35957 5.4758 4.90388 4.93149 5.57532 4.93149V4.43149Z" fill="#FFF8F8"/>
</svg>
