<svg width="21" height="27" viewBox="0 0 21 27" fill="none" xmlns="http://www.w3.org/2000/svg">
<path d="M13.8022 23.2068L13.1014 22.6572L13.8022 23.2068ZM7.19781 23.2068L6.49698 23.7564L7.19781 23.2068ZM10.5 25.944V25.0534V25.944ZM20 11.2228H19.1094C19.1094 12.6793 18.3498 14.6282 17.1545 16.7415C15.9788 18.82 14.4594 20.9255 13.1014 22.6572L13.8022 23.2068L14.503 23.7564C15.8878 21.9905 17.4673 19.8064 18.7049 17.6185C19.9227 15.4655 20.8906 13.1712 20.8906 11.2228H20ZM7.19781 23.2068L7.89864 22.6572C6.54062 20.9255 5.02121 18.82 3.84555 16.7415C2.65017 14.6282 1.89063 12.6793 1.89063 11.2228H1H0.109375C0.109375 13.1712 1.07731 15.4655 2.29513 17.6185C3.53267 19.8064 5.11217 21.9905 6.49698 23.7564L7.19781 23.2068ZM1 11.2228H1.89063C1.89063 6.00616 5.80555 1.89063 10.5 1.89063V1V0.109375C4.70104 0.109375 0.109375 5.14767 0.109375 11.2228H1ZM10.5 1V1.89063C15.1944 1.89063 19.1094 6.00616 19.1094 11.2228H20H20.8906C20.8906 5.14767 16.299 0.109375 10.5 0.109375V1ZM13.8022 23.2068L13.1014 22.6572C12.3663 23.5945 11.8824 24.2068 11.449 24.6005C11.0538 24.9595 10.79 25.0534 10.5 25.0534V25.944V26.8346C11.3658 26.8346 12.0375 26.4723 12.6467 25.9189C13.2178 25.4002 13.8071 24.6439 14.503 23.7564L13.8022 23.2068ZM7.19781 23.2068L6.49698 23.7564C7.19294 24.6439 7.78224 25.4002 8.35329 25.9189C8.96247 26.4723 9.63424 26.8346 10.5 26.8346V25.944V25.0534C10.21 25.0534 9.94621 24.9595 9.55097 24.6005C9.1176 24.2068 8.63366 23.5945 7.89864 22.6572L7.19781 23.2068ZM6.9375 11.6875H6.04688C6.04688 14.1469 8.04061 16.1406 10.5 16.1406V15.25V14.3594C9.02436 14.3594 7.82812 13.1631 7.82812 11.6875H6.9375ZM10.5 15.25V16.1406C12.9594 16.1406 14.9531 14.1469 14.9531 11.6875H14.0625H13.1719C13.1719 13.1631 11.9756 14.3594 10.5 14.3594V15.25ZM14.0625 11.6875H14.9531C14.9531 9.22811 12.9594 7.23438 10.5 7.23438V8.125V9.01562C11.9756 9.01562 13.1719 10.2119 13.1719 11.6875H14.0625ZM10.5 8.125V7.23438C8.04061 7.23438 6.04688 9.22811 6.04688 11.6875H6.9375H7.82812C7.82812 10.2119 9.02436 9.01562 10.5 9.01562V8.125Z" fill="#005AAA"/>
</svg>
