<svg width="38" height="38" viewBox="0 0 38 38" fill="none" xmlns="http://www.w3.org/2000/svg">
<path d="M34.16 9.16L19.18 0.620007C18.8067 0.340004 18.4333 0.340004 18.06 0.620007L3.08 9.16C2.14667 9.72001 1.4 10.4667 0.84 11.4C0.28 12.3333 0 13.36 0 14.48V31.56C0 33.24 0.606667 34.6867 1.82 35.9C3.03333 37.1133 4.48 37.72 6.16 37.72H31.08C32.76 37.72 34.2067 37.1133 35.42 35.9C36.6333 34.6867 37.24 33.24 37.24 31.56V14.48C37.24 13.36 36.96 12.3333 36.4 11.4C35.84 10.4667 35.0933 9.72001 34.16 9.16ZM19.88 25.26C19.88 23.9533 20.37 22.81 21.35 21.83C22.33 20.85 23.4733 20.36 24.78 20.36C25.1533 20.36 25.4567 20.4767 25.69 20.71C25.9233 20.9433 26.04 21.2467 26.04 21.62C26.04 23.02 25.55 24.1867 24.57 25.12C23.59 26.0533 22.4467 26.52 21.14 26.52H19.88V25.26ZM17.36 26.52H16.1C14.7933 26.52 13.65 26.0533 12.67 25.12C11.69 24.1867 11.2 23.02 11.2 21.62C11.2 21.2467 11.3167 20.9433 11.55 20.71C11.7833 20.4767 12.0867 20.36 12.46 20.36C13.7667 20.36 14.91 20.85 15.89 21.83C16.87 22.81 17.36 23.9533 17.36 25.26V26.52ZM34.86 31.56C34.86 32.5867 34.4867 33.4733 33.74 34.22C32.9933 34.9667 32.1067 35.34 31.08 35.34H19.88V29.04H21.14C23.1933 29.04 24.9433 28.3167 26.39 26.87C27.8367 25.4233 28.56 23.6733 28.56 21.62C28.56 20.5933 28.1867 19.7067 27.44 18.96C26.6933 18.2133 25.8067 17.84 24.78 17.84C22.7267 17.84 21 18.5867 19.6 20.08C19.2267 20.4533 18.9 20.8267 18.62 21.2C17.8733 20.1733 16.9633 19.3567 15.89 18.75C14.8167 18.1433 13.6267 17.84 12.32 17.84C11.2933 17.84 10.43 18.2133 9.73 18.96C9.03 19.7067 8.68 20.5933 8.68 21.62C8.68 23.6733 9.40333 25.4233 10.85 26.87C12.2967 28.3167 14.0467 29.04 16.1 29.04H17.36V35.34H6.16C5.13333 35.34 4.24667 34.9667 3.5 34.22C2.75333 33.4733 2.38 32.5867 2.38 31.56V14.48C2.38 13.8267 2.56667 13.22 2.94 12.66C3.31333 12.1 3.78 11.6333 4.34 11.26L18.62 3.14L32.9 11.26C33.46 11.6333 33.9267 12.1 34.3 12.66C34.6733 13.22 34.86 13.8267 34.86 14.48V31.56Z" fill="#005AAA"/>
</svg>
