<svg width="24" height="22" viewBox="0 0 24 22" fill="none" xmlns="http://www.w3.org/2000/svg">
<path d="M23.31 12.3086L23.13 12.2186V4.38863C23.13 3.30863 22.74 2.36363 21.96 1.55363C21.18 0.743628 20.25 0.338627 19.17 0.338627H4.77C3.69 0.338627 2.76 0.743628 1.98 1.55363C1.2 2.36363 0.81 3.30863 0.81 4.38863V12.2186L0.72 12.3086C0.24 12.7886 0 13.3586 0 14.0186V20.4086C0 20.5886 0.075 20.7686 0.225 20.9486C0.375 21.1286 0.57 21.2186 0.81 21.2186H4.77C5.07 21.2186 5.28 21.0986 5.4 20.8586L6.84 18.7886H17.19L18.54 20.8586C18.66 21.0986 18.87 21.2186 19.17 21.2186H23.22C23.4 21.2186 23.565 21.1286 23.715 20.9486C23.865 20.7686 23.94 20.5886 23.94 20.4086V14.0186C23.94 13.3586 23.73 12.7886 23.31 12.3086ZM4.77 1.95863H19.17C19.83 1.95863 20.4 2.19863 20.88 2.67863C21.36 3.15863 21.6 3.72863 21.6 4.38863V9.15863C21.24 8.67863 20.775 8.28863 20.205 7.98863C19.635 7.68863 19.02 7.56863 18.36 7.62863H5.58C4.44 7.56863 3.51 7.92863 2.79 8.70863L2.34 9.24863V4.38863C2.34 3.72863 2.58 3.15863 3.06 2.67863C3.54 2.19863 4.11 1.95863 4.77 1.95863ZM20.79 11.5886H3.15C3.15 10.9286 3.39 10.3586 3.87 9.87863C4.35 9.39863 4.92 9.15863 5.58 9.15863H18.36C19.02 9.15863 19.59 9.39863 20.07 9.87863C20.55 10.3586 20.79 10.9286 20.79 11.5886ZM22.41 19.5986H19.62L18.27 17.5286C18.09 17.2886 17.85 17.1686 17.55 17.1686H6.39C6.09 17.1686 5.85 17.2886 5.67 17.5286L4.32 19.5986H1.53V14.0186C1.53 13.7786 1.62 13.5836 1.8 13.4336C1.98 13.2836 2.16 13.2086 2.34 13.2086H21.6C21.78 13.2086 21.96 13.2836 22.14 13.4336C22.32 13.5836 22.41 13.7786 22.41 14.0186V19.5986Z" fill="#181A20"/>
</svg>
