<svg width="15" height="19" viewBox="0 0 15 19" fill="none" xmlns="http://www.w3.org/2000/svg">
<path d="M14.2039 9.13605C14.1118 8.86595 13.9275 8.73091 13.651 8.73091H10.2645L11.2321 1.03316C11.2782 0.763062 11.1745 0.56049 10.9211 0.425442C10.6677 0.290394 10.4258 0.312901 10.1954 0.492966L0.9343 8.86595C0.75 9.09103 0.703925 9.32737 0.796075 9.57496C0.888225 9.82255 1.07253 9.94634 1.34898 9.94634H4.7355L3.76792 17.6441C3.72184 17.9142 3.82551 18.1168 4.07893 18.2518C4.33234 18.3869 4.57423 18.3643 4.80461 18.1843L14.0657 9.74377C14.25 9.5637 14.2961 9.36113 14.2039 9.13605ZM5.21928 16.1586L6.04863 9.40615C6.09471 9.22608 6.04863 9.06853 5.91041 8.93348C5.77218 8.79843 5.61092 8.73091 5.42662 8.73091H2.86945L9.78072 2.51869L8.95137 9.2711C8.90529 9.45116 8.95137 9.60872 9.08959 9.74377C9.22782 9.87882 9.38908 9.94634 9.57338 9.94634H12.1305L5.21928 16.1586Z" fill="white"/>
</svg>
