<svg width="18" height="19" viewBox="0 0 18 19" fill="none" xmlns="http://www.w3.org/2000/svg">
<g clip-path="url(#clip0_8114_49)">
<path d="M13.8 18H3C2.2 18 1.51 17.71 0.93 17.13C0.35 16.55 0.06 15.84 0.06 15L0 7.02C0 6.26 0.17 5.57 0.51 4.95C0.85 4.33 1.34 3.82 1.98 3.42L6.78 0.42C7.26 0.140001 7.79 0 8.37 0C8.95 0 9.48 0.140001 9.96 0.42L14.76 3.42C15.4 3.78 15.89 4.28 16.23 4.92C16.57 5.56 16.74 6.26 16.74 7.02L16.8 15C16.8 15.84 16.51 16.55 15.93 17.13C15.35 17.71 14.64 18 13.8 18ZM8.4 1.2C8.04 1.2 7.72 1.28 7.44 1.44L2.58 4.44C2.14 4.72 1.8 5.09 1.56 5.55C1.32 6.01 1.2 6.5 1.2 7.02V15C1.2 15.48 1.38 15.9 1.74 16.26C2.1 16.62 2.52 16.8 3 16.8H13.8C14.32 16.8 14.75 16.62 15.09 16.26C15.43 15.9 15.6 15.48 15.6 15V7.02C15.6 6.46 15.47 5.96 15.21 5.52C14.95 5.08 14.6 4.72 14.16 4.44L9.3 1.44C9.02 1.28 8.72 1.2 8.4 1.2ZM10.8 14.4H6C5.84 14.4 5.71 14.34 5.61 14.22C5.51 14.1 5.46 13.96 5.46 13.8C5.46 13.64 5.51 13.5 5.61 13.38C5.71 13.26 5.84 13.2 6 13.2H10.8C11.04 13.16 11.23 13.25 11.37 13.47C11.51 13.69 11.51 13.91 11.37 14.13C11.23 14.35 11.04 14.44 10.8 14.4Z" fill="#181A20"/>
</g>
<defs>
<clipPath id="clip0_8114_49">
<rect width="18" height="18" fill="white" transform="matrix(1 0 0 -1 0 18.34)"/>
</clipPath>
</defs>
</svg>
