<svg width="20" height="20" viewBox="0 0 20 20" fill="none" xmlns="http://www.w3.org/2000/svg">
<path fill-rule="evenodd" clip-rule="evenodd" d="M10.1811 0C4.75918 0 0.363331 4.36186 0.363331 9.74296C0.363331 11.5834 0.878049 13.3048 1.7718 14.7736L0 20L5.43538 18.2731C6.8416 19.0442 8.45977 19.4848 10.1811 19.4848C15.6041 19.4848 20 15.123 20 9.74185C20 4.36074 15.6041 0 10.1811 0ZM10.1811 17.8525C8.52145 17.8525 6.97505 17.3584 5.68433 16.5116L2.54331 17.5097L3.56378 14.4976C2.58481 13.1601 2.00729 11.5177 2.00729 9.74185C2.00841 5.26983 5.67424 1.63125 10.1811 1.63125C14.688 1.63125 18.3549 5.26983 18.3549 9.74185C18.3549 14.2139 14.688 17.8525 10.1811 17.8525ZM14.7844 11.9562C14.5377 11.8226 13.3288 11.175 13.1023 11.0838C12.8758 10.9925 12.7098 10.9447 12.5338 11.1873C12.3577 11.4298 11.8553 11.9717 11.704 12.132C11.5514 12.2922 11.4045 12.3078 11.1578 12.1731C10.9123 12.0396 10.1149 11.747 9.18867 10.8646C8.46874 10.178 7.99663 9.34461 7.85983 9.09091C7.72302 8.8361 7.85983 8.70702 7.98879 8.58796C8.10541 8.48003 8.25007 8.30644 8.38127 8.16624C8.51135 8.02604 8.55733 7.92367 8.64704 7.76121C8.73675 7.59875 8.70087 7.45188 8.64256 7.32503C8.58424 7.19818 8.12896 5.95638 7.93945 5.45009C7.74993 4.94492 7.53799 5.01947 7.39109 5.01391C7.2453 5.00946 7.07822 4.98164 6.91113 4.97608C6.74404 4.9694 6.47042 5.0217 6.23157 5.26205C5.99271 5.50239 5.32212 6.07989 5.27614 7.30388C5.23017 8.52676 6.08354 9.74296 6.20241 9.91321C6.32128 10.0835 7.83179 12.7362 10.3415 13.8266C12.8523 14.9171 12.8646 14.5844 13.3255 14.5599C13.7864 14.5354 14.8304 14.0136 15.0614 13.4405C15.2924 12.8675 15.3103 12.3701 15.252 12.2644C15.1937 12.1587 15.0289 12.0897 14.7833 11.9562H14.7844Z" fill="#005AAA"/>
</svg>
