<svg width="13" height="13" viewBox="0 0 13 13" fill="none" xmlns="http://www.w3.org/2000/svg">
<path fill-rule="evenodd" clip-rule="evenodd" d="M6.61772 0C3.09347 0 0.236165 2.83521 0.236165 6.33292C0.236165 7.52921 0.570732 8.6481 1.15167 9.60281L0 13L3.533 11.8775C4.44704 12.3787 5.49885 12.6651 6.61772 12.6651C10.1427 12.6651 13 9.82992 13 6.3322C13 2.83448 10.1427 0 6.61772 0ZM6.61772 11.6041C5.53894 11.6041 4.53378 11.283 3.69481 10.7326L1.65315 11.3813L2.31646 9.42344C1.68012 8.55408 1.30474 7.48654 1.30474 6.3322C1.30547 3.42539 3.68825 1.06031 6.61772 1.06031C9.54718 1.06031 11.9307 3.42539 11.9307 6.3322C11.9307 9.23901 9.54718 11.6041 6.61772 11.6041ZM9.60987 7.7715C9.44951 7.68471 8.66375 7.26377 8.51651 7.20446C8.36927 7.14515 8.2614 7.11405 8.14696 7.27173C8.03252 7.4294 7.70597 7.78163 7.60757 7.88578C7.50844 7.98993 7.41295 8.00006 7.25259 7.91254C7.09296 7.82575 6.57471 7.63553 5.97264 7.06198C5.50468 6.61572 5.19781 6.074 5.10889 5.90909C5.01996 5.74346 5.10889 5.65956 5.19271 5.58217C5.26852 5.51202 5.36255 5.39919 5.44783 5.30806C5.53238 5.21692 5.56226 5.15038 5.62058 5.04479C5.67889 4.93919 5.65556 4.84372 5.61766 4.76127C5.57976 4.67881 5.28382 3.87165 5.16064 3.54256C5.03745 3.2142 4.89969 3.26266 4.8042 3.25904C4.70945 3.25615 4.60084 3.23807 4.49223 3.23445C4.38363 3.23011 4.20577 3.2641 4.05052 3.42033C3.89526 3.57655 3.45938 3.95193 3.42949 4.74752C3.39961 5.54239 3.9543 6.33292 4.03157 6.44358C4.10883 6.55424 5.09066 8.27851 6.72195 8.98731C8.35397 9.69612 8.36198 9.47986 8.66156 9.46395C8.96114 9.44804 9.63975 9.10882 9.78991 8.73634C9.94006 8.36386 9.95172 8.04056 9.91382 7.97185C9.87592 7.90314 9.76877 7.85829 9.60914 7.7715H9.60987Z" fill="white"/>
</svg>
